<svg class="svg-icon" style="width: 1em; height: 1em;vertical-align: middle;fill: currentColor;overflow: hidden;" viewBox="0 0 1024 1024" xmlns="http://www.w3.org/2000/svg"><path d="M816 880H208a64 64 0 0 1-64-64V208a64 64 0 0 1 64-64h608a64 64 0 0 1 64 64v608a64 64 0 0 1-64 64zM496 176H208a32 32 0 0 0-32 32v288h320V176z m0 352H176v288a32 32 0 0 0 32 32h288V528z m352-320a32 32 0 0 0-32-32H528v320h320V208z m0 320H528v320h288a32 32 0 0 0 32-32V528z m-80 224H608a16 16 0 0 1 0-32h160a16 16 0 0 1 0 32z m0-96H608a16 16 0 0 1 0-32h160a16 16 0 0 1 0 32zM608 320h160a16 16 0 0 1 0 32H608a16 16 0 0 1 0-32zM260.624 612.32a16 16 0 0 1 22.624 0l52.064 52 50.256-50.24a16.032 16.032 0 0 1 22.624 22.72l-50.256 50.24 49.76 49.76a16 16 0 1 1-22.624 22.56l-49.76-49.76-51.568 51.52a15.728 15.728 0 0 1-22.624 0 15.904 15.904 0 0 1 0-22.56l51.568-51.52-52.064-52.16a15.904 15.904 0 0 1 0-22.56zM256 320h64v-64a16 16 0 0 1 32 0v64h64a16 16 0 0 1 0 32h-64v64a16 16 0 0 1-32 0v-64h-64a16 16 0 0 1 0-32z" fill="#333333" /></svg>
